<svg xmlns="http://www.w3.org/2000/svg" version="1.1" xmlns:xlink="http://www.w3.org/1999/xlink" xmlns:svgjs="http://svgjs.dev/svgjs" viewBox="0 0 800 800">
<symbol id="circle" viewBox="0 0 800 800">
<circle r="23" cx="157" cy="453" fill="hsl(113, 46%, 39%)" opacity="0.96"></circle><circle r="27.5" cx="343" cy="629" fill="hsl(98, 46%, 39%)" opacity="0.13"></circle><circle r="28" cx="748" cy="538" fill="hsl(95, 46%, 39%)" opacity="0.11"></circle><circle r="32.5" cx="565" cy="140" fill="hsl(78, 46%, 39%)" opacity="0.30"></circle><circle r="32.5" cx="460" cy="511" fill="hsl(82, 46%, 39%)" opacity="0.61"></circle><circle r="27" cx="329" cy="351" fill="hsl(100, 46%, 39%)" opacity="0.92"></circle><circle r="33.5" cx="454" cy="154" fill="hsl(83, 46%, 39%)" opacity="0.70"></circle><circle r="26.5" cx="744" cy="751" fill="hsl(95, 46%, 39%)" opacity="0.97"></circle><circle r="22.5" cx="274" cy="440" fill="hsl(113, 46%, 39%)" opacity="0.36"></circle><circle r="28.5" cx="47" cy="267" fill="hsl(90, 46%, 39%)" opacity="0.19"></circle><circle r="29" cx="746" cy="306" fill="hsl(95, 46%, 39%)" opacity="0.94"></circle><circle r="31" cx="55" cy="158" fill="hsl(88, 46%, 39%)" opacity="0.98"></circle><circle r="30.5" cx="54" cy="744" fill="hsl(92, 46%, 39%)" opacity="0.53"></circle><circle r="21.5" cx="147" cy="275" fill="hsl(111, 46%, 39%)" opacity="0.15"></circle><circle r="24" cx="146" cy="561" fill="hsl(111, 46%, 39%)" opacity="0.82"></circle><circle r="28" cx="748" cy="422" fill="hsl(95, 46%, 39%)" opacity="0.35"></circle><circle r="36.5" cx="635" cy="741" fill="hsl(75, 46%, 39%)" opacity="0.98"></circle><circle r="31.5" cx="503" cy="48" fill="hsl(77, 46%, 39%)" opacity="0.88"></circle><circle r="37.5" cx="639" cy="256" fill="hsl(76, 46%, 39%)" opacity="0.87"></circle><circle r="24.5" cx="298" cy="747" fill="hsl(108, 46%, 39%)" opacity="0.75"></circle><circle r="27" cx="361" cy="506" fill="hsl(95, 46%, 39%)" opacity="0.41"></circle>
</symbol></svg>